<?xml version="1.0" encoding="utf-8"?>
<!-- Generator: Adobe Illustrator 16.0.0, SVG Export Plug-In . SVG Version: 6.00 Build 0)  -->
<!DOCTYPE svg PUBLIC "-//W3C//DTD SVG 1.1//EN" "http://www.w3.org/Graphics/SVG/1.1/DTD/svg11.dtd">
<svg version="1.1" id="Calque_1" xmlns="http://www.w3.org/2000/svg" xmlns:xlink="http://www.w3.org/1999/xlink" x="0px" y="0px"
	 width="432px" height="432px" viewBox="0 0 432 432" enable-background="new 0 0 432 432" xml:space="preserve">
<g>
	<g>
		<g>
			<g>
				<path fill="#FCBF24" d="M271.204,102.296c-0.037-0.289-0.102-0.6-0.323-0.789c-0.224-0.19-0.543-0.205-0.836-0.209
					c-1.797-0.028-3.02,0.093-4.816,0.065c-1.002-3.938-5.043-6.865-9.097-6.591c0.099-4.492-2.916-8.591-6.691-11.027
					c-3.775-2.437-7.625-3.822-11.996-4.861c-2.702-0.642-6.222-1.935-13.865-2.523c-0.192-0.82-0.442-1.906-0.633-2.811
					c-0.359-1.703-3.996-1.98-3.996-1.98l-9.432,0.002c0,0-9.199,0.829-12.118,1.265c-2.31,0.345-2.337,3.439-2.249,4.717
					c-4.031,0.71-8.014,1.654-11.864,3.031c-6.18,2.21-12.04,5.59-16.463,10.438c-0.577,0.632-1.156,1.31-1.944,1.645
					c-0.588,0.251-1.242,0.288-1.867,0.424c-2.655,0.576-5.318,3.5-5.292,6.218c-2.182,0.168-3.747,0.311-5.799,1.071
					c-0.559,0.207-1.139,0.458-1.489,0.939c-0.391,0.538-0.416,1.25-0.421,1.915c-0.063,6.923,0.292,13.851,1.12,20.724
					c0.256,2.125,0.615,4.376,2.022,5.989c1.407,1.614,2.687,1.348,5.639,0.555c0.379,3.251,3.124,6.078,6.362,6.555
					c0.929,0.137,1.896,0.102,2.775,0.431s1.671,1.186,1.509,2.11c0,0,0.003,0.309,0.005,0.747
					c-2.419,0.762-4.186,2.777-4.368,3.963c-0.188,1.212-0.183,2.435-0.049,3.649c-2.831,0.319-5.93,2.188-7.085,4.509
					c-0.37,0.742-0.404,1.601-0.423,2.431c-0.172,7.464,0.37,15.106,3.26,21.991c0.274,0.652,0.597,1.322,1.053,1.851
					c0.238,0.275,0.509,0.515,0.834,0.689c0.605,0.326,1.313,0.395,2,0.42c1.648,0.062,3.562-0.23,5.419-0.531
					c0.472-0.077,0.942-0.153,1.401-0.226l0-0.002c12.61-1.802,25.508-4.457,38.215-4.679c13.149-0.229,26.45,1.137,38.86,5.491
					c1.019,0.357,2.304,0.666,3.126,0.088c2.027,0.361,4.863,0.844,6.968,0.828c0.469-0.003,0.949-0.153,1.318-0.444
					c0.143-0.112,0.254-0.253,0.354-0.403c0.191-0.286,0.324-0.619,0.441-0.945c2.187-6.099,3.723-12.432,4.572-18.856
					c0.384-2.903,0.403-6.373-1.935-8.137c-1.753-1.323-3.722-2.028-6.232-1.918c0.352-2.244,0.557-4.66-0.695-6.521
					c-1.344-1.999-2.801-2.949-4.942-3.129c0.015-0.209,0.033-0.409,0.053-0.582c0.122-1.049,0.699-0.718,0.699-0.718
					c2.331-0.141,4.667-0.542,6.419-2.086c1.752-1.543,3.291-3.438,3.394-5.823c1.723,0.005,3.629-0.14,5.278-0.641
					c0.316-0.096,0.646-0.211,0.864-0.459c0.231-0.261,0.299-0.625,0.359-0.969c0.223-1.291,0.447-2.581,0.67-3.872
					c0.829-6.933,0.616-11.908,1.6-18.226C271.122,105.5,271.405,103.891,271.204,102.296z M163.522,133.003
					c-1.328-1.056-1.934-2.83-1.372-4.431c0.24-0.683,1.074-0.609,1.322-1.289c0.324-0.89-0.22-3.094-0.29-4.039
					c-0.496-6.759-0.991-13.519-1.487-20.278c-0.085-1.156-0.274-3.3-1.432-3.251c-0.012-0.648,0.108-0.855,0.377-1.484
					c0.443-1.275,1.909-1.714,3.249-1.875c0.312-0.038,0.68,0.458,0.88,0.7c0.116,0.141,0.141,0.333,0.162,0.514
					c1.342,12.018,2.712,24.49,4.055,36.508C167.12,134.32,164.85,134.059,163.522,133.003z M258.747,104.255
					c-0.445,0.971-0.538,2.061-0.624,3.125c-0.563,6.97-1.125,13.939-1.688,20.909c-0.052,0.64-0.019,1.438,0.561,1.715
					c0.185,0.088,0.94,0.247,1.097,0.379c-0.843,3.531-2.94,3.788-4.511,4.699c-0.252,0.146-0.533,0.29-0.821,0.249
					c-0.657-0.093-0.812-0.96-0.802-1.623c0.152-9.826,0.855-19.644,2.103-29.392c0.234-1.83,0.62-3.879,2.15-4.91
					c0.82-0.58,2.412-0.298,3.297,0.176c0.885,0.474,1.654,1.754,1.625,2.758C260.07,102.44,259.192,103.284,258.747,104.255z"/>
			</g>
			<g>
				<path fill="#FFFFFF" d="M242.414,170.697c0.062-0.333,0.092-1.01,0.292-1.284c0.211-0.288,0.624-0.316,0.981-0.311
					c1.36,0.02,2.718,0.133,4.063,0.338c0.212,0.033,0.436,0.073,0.597,0.214c0.29,0.253,0.258,0.704,0.203,1.084
					c-0.202,1.395-0.404,2.79-0.606,4.185c-0.04,0.277-0.089,0.573-0.286,0.772c-0.333,0.338-0.893,0.229-1.349,0.097
					c-1.083-0.316-3.125-0.516-4.208-0.832L242.414,170.697z"/>
			</g>
			<g>
				<path fill="#E52521" d="M241.645,171.117c0.015-0.291,0.124-0.863,0.01-1.132c-0.12-0.283-0.459-0.388-0.759-0.454
					c-1.141-0.253-2.299-0.427-3.465-0.521c-0.184-0.015-0.378-0.025-0.541,0.061c-0.292,0.154-0.356,0.538-0.385,0.867
					c-0.107,1.207-0.214,2.414-0.321,3.62c-0.021,0.239-0.038,0.497,0.086,0.702c0.211,0.349,0.702,0.369,1.109,0.348
					c0.968-0.05,2.716,0.187,3.684,0.137L241.645,171.117z"/>
			</g>
			<g>
				<path fill="#FFFFFF" d="M178.042,170.182c-0.075-0.331-0.132-1.006-0.343-1.271c-0.222-0.28-0.636-0.292-0.993-0.272
					c-1.358,0.074-2.711,0.241-4.046,0.5c-0.21,0.041-0.432,0.09-0.588,0.237c-0.279,0.264-0.23,0.714-0.16,1.092
					c0.258,1.386,0.516,2.771,0.773,4.157c0.051,0.274,0.113,0.569,0.316,0.76c0.346,0.325,0.901,0.193,1.352,0.042
					c1.069-0.359,3.102-0.64,4.171-1L178.042,170.182z"/>
			</g>
			<g>
				<path fill="#E52521" d="M178.828,170.57c-0.026-0.291-0.158-0.857-0.055-1.13c0.108-0.288,0.443-0.406,0.74-0.484
					c1.13-0.298,2.281-0.519,3.441-0.659c0.183-0.022,0.377-0.041,0.543,0.039c0.298,0.143,0.376,0.523,0.419,0.851
					c0.155,1.202,0.311,2.403,0.465,3.604c0.031,0.238,0.059,0.495-0.058,0.705c-0.197,0.357-0.686,0.396-1.094,0.392
					c-0.969-0.012-2.706,0.295-3.675,0.284L178.828,170.57z"/>
			</g>
			<path fill="none" d="M259.509,99.584c-0.885-0.475-2.478-0.756-3.297-0.176c-1.53,1.031-1.916,3.08-2.15,4.91
				c-1.248,9.748-1.951,19.565-2.103,29.392c-0.01,0.663,0.145,1.53,0.802,1.623c0.289,0.041,0.569-0.102,0.821-0.249
				c1.57-0.912,3.667-1.168,4.511-4.699c-0.156-0.132-0.912-0.291-1.097-0.379c-0.579-0.277-0.612-1.075-0.561-1.715
				c0.563-6.97,1.125-13.939,1.688-20.909c0.086-1.065,0.179-2.155,0.624-3.125c0.445-0.971,1.323-1.815,2.387-1.914
				C261.163,101.338,260.395,100.058,259.509,99.584z"/>
			<path fill="none" d="M164.77,97.056c-0.2-0.242-0.568-0.737-0.88-0.7c-1.34,0.161-2.805,0.601-3.249,1.875
				c-0.269,0.628-0.39,0.835-0.377,1.484c1.158-0.049,1.347,2.095,1.432,3.251c0.496,6.759,0.991,13.519,1.487,20.278
				c0.069,0.944,0.613,3.148,0.29,4.039c-0.248,0.68-1.082,0.606-1.322,1.289c-0.562,1.601,0.044,3.375,1.372,4.431
				c1.328,1.056,3.598,1.317,5.464,1.076c-1.342-12.018-2.713-24.491-4.055-36.508C164.911,97.389,164.886,97.197,164.77,97.056z"/>
			<g>
				<path fill="#020203" d="M167.04,190.74c-0.121,0.01-0.244,0.016-0.367,0.022c0.469,3.894,1.297,9.028,2.264,11.948
					c0.102,0.31,0.226,0.641,0.501,0.815c0.222,0.14,0.5,0.149,0.762,0.152c4.753,0.054,8.204,0.802,12.852-0.197
					c0.846-0.182,1.742-0.411,2.328-1.047c0.642-0.698,0.76-1.718,0.813-2.665c0.15-2.667,0.758-8.468,0.643-12.252
					c-1.859,0.283-3.715,0.585-5.565,0.923C176.541,189.306,171.832,190.354,167.04,190.74z"/>
			</g>
			<g>
				<path fill="#020203" d="M255.493,189.564c-6.039-1.296-12.141-2.293-18.278-2.993c0.138,3.88,0.564,9.198,0.575,12.445
					c0.001,0.582,0.019,1.21,0.373,1.672c0.45,0.587,1.276,0.699,2.014,0.751c4.856,0.346,8.252,0.142,13.058-0.645
					c1.81-0.296,3.254-0.547,3.486-2.366c0.365-2.85,0.628-6.108,0.77-8.689C256.847,189.819,256.136,189.702,255.493,189.564z"/>
			</g>
			<g>
				<path fill="#9A9999" d="M260.329,179.971c-0.1,0.15-0.211,0.291-0.354,0.403c-0.369,0.291-0.849,0.44-1.318,0.444
					c-2.105,0.017-4.941-0.466-6.968-0.828c-0.822,0.578-2.107,0.269-3.126-0.088c-12.41-4.354-25.711-5.72-38.86-5.491
					c-12.707,0.222-25.605,2.876-38.215,4.679l0,0.002c-2.265,0.355-4.753,0.835-6.82,0.757c-0.687-0.026-1.395-0.094-2-0.42
					c-0.325-0.175-0.596-0.414-0.834-0.689c-1.462,2.191,0.16,6.863,1.099,9.232c0.382,0.964,0.831,2.005,1.747,2.492
					c0.603,0.32,1.305,0.339,1.994,0.299c0.123-0.007,0.246-0.013,0.367-0.022c4.792-0.386,9.501-1.434,14.23-2.3
					c1.85-0.338,3.706-0.64,5.565-0.923c16.653-2.538,33.643-2.855,50.38-0.945c6.137,0.7,12.239,1.697,18.278,2.993
					c0.643,0.138,1.354,0.255,1.997,0.175c0.454-0.057,0.875-0.209,1.207-0.535c0.386-0.378,0.567-0.914,0.708-1.436
					C260.071,185.275,262.132,181.991,260.329,179.971z"/>
			</g>
			<g>
				<path fill="#9A9999" d="M228.282,81.084c0.144,2.758,0.947,12.425,0.947,12.425s-13.883-1.565-20.937-0.913
					c-3.384,0.313-12.027,0.668-15.347,1.393c-0.577-3.235-0.973-9.83-1.173-13.016C202.92,78.45,218.809,78.312,228.282,81.084z"/>
			</g>
			<g>
				<path fill="#9A9999" d="M172.669,99.664c2.012-0.98,4.742-1.991,6.89-2.618c4.05-1.182,5.647-1.52,9.761-2.181
					c-0.622-3.899-0.677-8.912-1.224-12.768c-0.646-0.207-1.344,0.021-1.98,0.258c-3.735,1.389-5.24,1.914-8.646,3.983
					c-1.558,0.946-2.859,2.679-3.728,4.281C172.979,92.024,172.785,98.069,172.669,99.664"/>
			</g>
			<g>
				<path fill="#E52521" d="M185.992,87.179c-1.593-0.514-2.928-0.705-4.235,0.339c-1.309,1.044-1.972,2.884-1.499,4.49
					c0.538,1.825,2.557,3.078,4.431,2.75c1.874-0.328,3.347-2.193,3.233-4.092C187.808,88.768,187.359,88.182,185.992,87.179z"/>
			</g>
			<g>
				<path fill="#F4E600" d="M177.793,90.699c-1.61-0.514-3.546,0.517-4.006,2.143c-0.459,1.626,0.664,3.526,2.313,3.893
					c1.65,0.366,3.479-0.893,3.712-2.566S178.749,90.968,177.793,90.699z"/>
			</g>
			<g>
				<path fill="#9A9999" d="M231.412,81.351c0.386,3.464,0.45,8.878,0.903,12.388c6.368,0.203,13.338,1.425,19.073,4.202
					c0.271,0.131,0.036-7.115-1.823-9.372s-4.493-3.751-7.212-4.824C239.08,82.453,236.024,81.664,231.412,81.351z"/>
			</g>
			<g>
				<path fill="#E52521" d="M238.486,85.353c-1.63-0.522-3.611,0.086-4.629,1.367c-1.018,1.281-1.035,3.114-0.104,4.425
					s2.728,2.05,4.458,1.9c0.839-0.072,1.681-0.35,2.29-0.882c1.388-1.212,1.155-3.3,0.302-4.841
					C240.345,86.495,239.428,85.644,238.486,85.353z"/>
			</g>
			<g>
				<path fill="#F4E600" d="M247.76,88.159c-0.969-0.858-2.752-0.698-3.758,0.158c-1.006,0.855-1.299,2.201-1.049,3.394
					c0.204,0.972,0.794,1.937,1.807,2.367c1.544,0.655,3.617-0.309,4.111-1.764S249.043,89.086,247.76,88.159z"/>
			</g>
			<g>
				<path fill="#FFFFFF" d="M212.211,73.26c-0.774-0.431-3.315-0.397-4.777-0.18s-1.902,1.048-1.631,2.501
					c0.193,1.039,0.058,2.004,1.103,2.161c1.045,0.156,2.558,0.171,3.603,0.009c0.647-0.1,1.459,0.059,1.928-0.398
					c0.561-0.547,0.397-1.178,0.28-1.953C212.565,74.399,212.777,73.802,212.211,73.26z"/>
			</g>
			<g>
				<path fill="#E52521" d="M203.673,73.638c-1.562-0.249-3.188-0.494-4.703-0.037s-2.875,1.839-2.756,3.417
					c0.033,0.439,0.197,0.894,0.552,1.153c0.402,0.293,0.945,0.273,1.441,0.241c1.278-0.083,2.556-0.166,3.833-0.249
					c0.741-0.048,1.343-0.069,2.07-0.224C205.15,77.717,204.916,73.895,203.673,73.638z"/>
			</g>
			<g>
				<path fill="#E52521" d="M215.09,73.247c1.55-0.319,3.164-0.637,4.697-0.248c1.533,0.388,2.955,1.708,2.907,3.29
					c-0.014,0.439-0.157,0.902-0.5,1.177c-0.389,0.311-0.931,0.315-1.429,0.306c-1.28-0.025-2.56-0.051-3.84-0.077
					c-0.743-0.015-1.345-0.009-2.078-0.131C213.798,77.388,213.86,73.56,215.09,73.247z"/>
			</g>
			<circle fill="#F4E600" cx="177.254" cy="154.145" r="6.953"/>
			<circle fill="#F4E600" cx="244.088" cy="152.594" r="6.953"/>
			<path fill="#9A9999" d="M236.275,144.697c-0.024-1.479-0.659-2.153-1.739-2.592c-0.083-0.067-0.189-0.113-0.328-0.126
				c-0.125-0.042-0.245-0.048-0.355-0.026c-1.702-0.147-3.426-0.248-5.165-0.305c-0.548-0.018-1.099-0.025-1.649-0.035
				c-1.786-0.033-3.579-0.029-5.374,0.005c-0.439,0.009-0.879,0.016-1.318,0.027c-1.936,0.051-3.865,0.13-5.781,0.227
				c-0.535,0.027-1.066,0.056-1.599,0.084c-0.523,0.029-1.047,0.056-1.567,0.086c-1.234,0.071-2.469,0.132-3.703,0.191
				c-0.513,0.025-1.026,0.052-1.539,0.075c-1.792,0.083-3.582,0.168-5.368,0.257c-0.437,0.021-0.873,0.044-1.309,0.066
				c-1.707,0.09-3.407,0.191-5.099,0.313c-0.261,0.019-0.524,0.031-0.785,0.051c-0.274,0.021-0.561,0.033-0.851,0.044
				c-3.252,0.117-7.301-0.184-6.647,4.206c0.139,0.938,0.321,1.881,0.518,2.816c0.117,0.555,0.235,1.105,0.369,1.657
				c0.389,1.601,0.845,3.179,1.332,4.709c0.158,0.497,0.318,0.988,0.482,1.473c0.481,1.425,0.98,2.799,1.477,4.105
				c0.17,0.448,0.34,0.885,0.508,1.316c0.043,0.111,0.086,0.225,0.128,0.334c1.475,3.768,2.473,3.956,6.306,3.804
				c0.622-0.024,1.244-0.049,1.866-0.074c0.344-0.014,0.688-0.027,1.032-0.041c1.159-0.046,2.319-0.092,3.48-0.138
				c0.435-0.018,0.87-0.035,1.306-0.052c1.401-0.056,2.804-0.111,4.208-0.167c0.437-0.017,0.874-0.035,1.311-0.052
				c1.365-0.054,2.732-0.108,4.1-0.163c0.051-0.002,0.103-0.004,0.154-0.006c0.416-0.017,0.831-0.033,1.247-0.049
				c1.428-0.057,2.858-0.114,4.29-0.17c0.42-0.017,0.84-0.033,1.26-0.05c0.406-0.016,0.811-0.032,1.217-0.048
				c0.824-0.033,1.825,0.016,2.848,0.019c0.439,0.001,0.882-0.007,1.319-0.032c0.987-0.058,1.942-0.208,2.735-0.573
				c1.454-0.669,2.342-2.167,2.951-3.947c0.139-0.405,0.268-0.821,0.38-1.25c0.401-1.532,0.655-3.175,0.891-4.62
				c0.089-0.546,0.175-1.065,0.266-1.533c0.046-0.242,0.094-0.472,0.143-0.685c0.292-1.256,0.797-2.788,1.234-4.36
				c0.152-0.548,0.289-1.097,0.412-1.644C236.117,146.731,236.29,145.657,236.275,144.697z M233.592,143.859
				c1.088,0.362,1.042,2.111,0.675,3.972c-2.06,0.108-4.114,0.205-6.166,0.304c0.127-1.484,0.268-3.008,0.414-4.574
				C230.226,143.615,231.922,143.709,233.592,143.859z M226.87,143.524c-0.127,1.606-0.248,3.169-0.357,4.689
				c-1.524,0.073-3.047,0.15-4.567,0.22c-0.015-1.587-0.044-3.221-0.084-4.902C223.534,143.5,225.205,143.496,226.87,143.524z
				 M226.077,154.849c-1.382,0.058-2.762,0.116-4.141,0.173c0.021-1.578,0.027-3.204,0.021-4.879
				c1.477-0.066,2.955-0.141,4.436-0.21C226.276,151.622,226.171,153.26,226.077,154.849z M225.761,160.81
				c-1.326,0.045-2.65,0.09-3.973,0.134c0.054-1.427,0.091-2.895,0.12-4.406c1.359-0.056,2.719-0.112,4.081-0.168
				C225.904,157.894,225.827,159.373,225.761,160.81z M197.808,157.53c1.413-0.058,2.828-0.117,4.244-0.175
				c0.168,1.453,0.331,2.866,0.515,4.236c-1.249,0.042-2.495,0.084-3.741,0.126C198.489,160.361,198.152,158.966,197.808,157.53z
				 M196.326,151.276c1.626-0.076,3.254-0.154,4.886-0.227c0.266,1.649,0.476,3.253,0.663,4.812
				c-1.478,0.062-2.953,0.124-4.426,0.185C197.082,154.503,196.709,152.914,196.326,151.276z M220.448,155.084
				c-1.599,0.067-3.196,0.134-4.79,0.2c-0.007-1.573-0.034-3.194-0.113-4.861c1.616-0.07,3.234-0.141,4.854-0.212
				C220.43,151.884,220.447,153.508,220.448,155.084z M214.215,155.345c-1.676,0.07-3.35,0.14-5.021,0.21
				c-0.169-1.562-0.343-3.172-0.522-4.832c1.786-0.077,3.574-0.157,5.365-0.234C214.142,152.153,214.191,153.772,214.215,155.345z
				 M207.723,155.616c-1.464,0.062-2.926,0.123-4.386,0.184c-0.165-1.56-0.352-3.166-0.594-4.817
				c1.461-0.064,2.924-0.128,4.389-0.192C207.335,152.448,207.531,154.056,207.723,155.616z M203.492,157.296
				c1.469-0.061,2.941-0.121,4.414-0.182c0.179,1.468,0.354,2.894,0.523,4.28c-1.495,0.05-2.989,0.101-4.48,0.151
				C203.783,160.17,203.64,158.754,203.492,157.296z M209.356,157.055c1.624-0.067,3.25-0.134,4.879-0.201
				c0.014,1.489,0.022,2.937,0.053,4.343c-1.491,0.05-2.98,0.101-4.468,0.151C209.67,159.957,209.515,158.526,209.356,157.055z
				 M215.66,156.795c1.592-0.066,3.187-0.131,4.783-0.197c-0.007,1.506-0.024,2.97-0.057,4.393
				c-1.574,0.053-3.147,0.106-4.718,0.159C215.651,159.74,215.659,158.288,215.66,156.795z M220.208,143.566
				c0.065,1.693,0.118,3.338,0.156,4.937c-1.642,0.074-3.281,0.147-4.919,0.219c-0.113-1.604-0.284-3.252-0.546-4.944
				C216.657,143.691,218.43,143.617,220.208,143.566z M212.043,143.925c0.404-0.022,0.812-0.042,1.218-0.064
				c0.3,1.685,0.506,3.328,0.646,4.929c-1.809,0.079-3.615,0.162-5.419,0.241c-0.171-1.588-0.348-3.222-0.53-4.903
				C209.318,144.062,210.68,144,212.043,143.925z M206.327,144.209c0.206,1.678,0.405,3.308,0.599,4.892
				c-1.485,0.065-2.968,0.131-4.449,0.197c-0.266-1.574-0.596-3.188-1.015-4.841C203.081,144.376,204.702,144.287,206.327,144.209z
				 M196.661,144.705c1.056-0.062,2.115-0.109,3.175-0.164c0.443,1.648,0.796,3.257,1.085,4.827
				c-1.666,0.075-3.328,0.156-4.988,0.234c-0.36-1.544-0.729-3.133-1.11-4.768C195.435,144.792,196.046,144.74,196.661,144.705z
				 M188.587,146.833c0.903-2.037,1.97-1.668,4.17-1.854c0.153-0.013,0.308-0.02,0.461-0.032c0.4,1.622,0.789,3.198,1.168,4.732
				c-2.043,0.098-4.083,0.196-6.117,0.302C188.133,148.838,188.18,147.751,188.587,146.833z M189.701,155.634
				c-0.328-1.217-0.796-2.601-1.122-3.982c2.069-0.106,4.145-0.204,6.225-0.303c0.405,1.634,0.8,3.219,1.188,4.757
				c-2.037,0.085-4.071,0.17-6.101,0.255C189.828,156.118,189.765,155.871,189.701,155.634z M190.267,157.841
				c2.031-0.084,4.066-0.167,6.104-0.251c0.364,1.431,0.719,2.822,1.074,4.175c-1.99,0.066-3.978,0.134-5.962,0.201
				C191.002,160.661,190.621,159.235,190.267,157.841z M195.723,166.299c-1.03,0.291-1.967-0.064-2.829-1.08
				c-0.143-0.362-0.287-0.727-0.432-1.094c-0.154-0.269-0.298-0.553-0.435-0.844c1.921-0.064,3.845-0.128,5.772-0.192
				c0.281,1.059,0.561,2.094,0.839,3.107C197.68,166.274,196.662,166.42,195.723,166.299z M199.951,166.13
				c-0.263-1.006-0.525-2.035-0.789-3.085c1.197-0.04,2.396-0.08,3.595-0.12c0.158,1.048,0.341,2.072,0.557,3.07
				C202.192,166.04,201.07,166.084,199.951,166.13z M204.636,165.941c-0.202-0.996-0.37-2.016-0.514-3.062
				c1.489-0.049,2.979-0.099,4.471-0.148c0.126,1.034,0.25,2.046,0.372,3.037C207.52,165.826,206.077,165.883,204.636,165.941z
				 M214.411,165.549c-1.375,0.055-2.748,0.11-4.119,0.166c-0.106-0.988-0.216-1.998-0.327-3.029
				c1.453-0.048,2.907-0.097,4.362-0.145c0.038,1.024,0.095,2.025,0.186,3.004C214.479,165.546,214.445,165.547,214.411,165.549z
				 M215.849,165.491c-0.079-0.977-0.127-1.975-0.154-2.996c1.549-0.052,3.099-0.103,4.651-0.155
				c-0.03,1.012-0.068,2.003-0.11,2.974C218.771,165.374,217.309,165.432,215.849,165.491z M222.686,165.216
				c-0.371,0.015-0.741,0.03-1.111,0.045c0.056-0.969,0.107-1.957,0.152-2.966c1.324-0.044,2.649-0.088,3.976-0.132
				c-0.042,0.995-0.078,1.969-0.111,2.924C224.625,165.169,223.628,165.178,222.686,165.216z M226.948,164.905
				c0.045-0.912,0.091-1.841,0.145-2.789c1.246-0.041,2.493-0.083,3.742-0.124C230.068,163.835,228.615,164.582,226.948,164.905z
				 M231.25,160.625c-1.361,0.046-2.722,0.092-4.08,0.137c0.086-1.441,0.185-2.925,0.292-4.454c1.595-0.066,3.192-0.131,4.791-0.197
				C231.926,157.663,231.601,159.168,231.25,160.625z M227.57,154.786c0.117-1.593,0.246-3.235,0.386-4.929
				c1.962-0.094,3.928-0.186,5.897-0.287c-0.345,1.276-0.724,2.424-0.855,3.03c-0.145,0.666-0.284,1.325-0.421,1.976
				C230.906,154.646,229.237,154.716,227.57,154.786z"/>
			<path fill="none" d="M164.77,97.056c-0.2-0.242-0.568-0.737-0.88-0.7c-1.34,0.161-2.805,0.601-3.249,1.875
				c-0.269,0.628-0.39,0.835-0.377,1.484c1.158-0.049,1.347,2.095,1.432,3.251c0.496,6.759,0.991,13.519,1.487,20.278
				c0.069,0.944,0.613,3.148,0.29,4.039c-0.248,0.68-1.082,0.606-1.322,1.289c-0.562,1.601,0.044,3.375,1.372,4.431
				c1.328,1.056,3.598,1.317,5.464,1.076c-1.342-12.018-2.713-24.491-4.055-36.508C164.911,97.389,164.886,97.197,164.77,97.056z"/>
			<path fill="none" d="M259.509,99.584c-0.885-0.475-2.478-0.756-3.297-0.176c-1.53,1.031-1.916,3.08-2.15,4.91
				c-1.248,9.748-1.951,19.565-2.103,29.392c-0.01,0.663,0.145,1.53,0.802,1.623c0.289,0.041,0.569-0.102,0.821-0.249
				c1.57-0.912,3.667-1.168,4.511-4.699c-0.156-0.132-0.912-0.291-1.097-0.379c-0.579-0.277-0.612-1.075-0.561-1.715
				c0.563-6.97,1.125-13.939,1.688-20.909c0.086-1.065,0.179-2.155,0.624-3.125c0.445-0.971,1.323-1.815,2.387-1.914
				C261.163,101.338,260.395,100.058,259.509,99.584z"/>
		</g>
		<g>
			<path fill="#9CD5DB" d="M171.991,101.131l-0.288,0.148c0.496,10.964,0.991,21.929,1.487,32.894
				c10.181-2.02,20.411-3.942,30.765-4.659c14.097-0.977,28.348,0.306,42.043,3.785c1.088-11.123,2.489-21.928,3.577-33.051
				C225.175,93.46,196.083,93.325,171.991,101.131z"/>
		</g>
	</g>
	<g>
		<path fill="#E52521" d="M179.339,228.958c2.656-1.269,4.691-3.086,5.943-5.38c1.745-3.199,1.643-6.965-0.268-9.827
			c-4.004-6-15.347-4.438-16.627-4.24l-1.796,0.278l-0.525,38.533h2.179c0.167,0,4.132-0.015,8.154-1.32
			c5.789-1.878,8.977-5.625,8.977-10.55C185.376,234.092,184.245,231.048,179.339,228.958z M170.839,213.571
			c3.332-0.229,8.865-0.032,10.599,2.566c1.035,1.551,1.061,3.563,0.069,5.381c-0.805,1.477-3.408,4.72-10.847,5.183
			L170.839,213.571z M175.152,242.886c-1.697,0.559-3.423,0.843-4.725,0.987l0.172-12.642c4.445,0.502,10.478,2.059,10.478,5.22
			C181.077,239.467,179.139,241.572,175.152,242.886z"/>
		<path fill="#E52521" d="M192.989,209.201l-8.988,38.241l4.185,0.984l2.974-12.65l7.843,0.249l2.726,12.373l4.199-0.925
			l-8.433-38.271H192.989z M192.163,231.505l3.017-12.833l2.869,13.019L192.163,231.505z"/>
		<path fill="#E52521" d="M216.418,244.021c-3.94,0-5.475-4.279-5.475-15.261c0-4.411,0.545-8.354,1.535-11.103
			c0.994-2.759,2.331-4.158,3.974-4.158c3.899,0,5.476,6.651,5.491,6.719l4.202-0.911c-0.089-0.413-2.266-10.107-9.693-10.107
			c-6.233,0-9.808,7.129-9.808,19.56c0,4.342,0.155,8.858,1.277,12.469c1.82,5.86,5.626,7.091,8.498,7.091
			c3.797,0,6.802-2.487,8.462-7.003c1.127-3.065,1.302-6.093,1.309-6.22l-4.293-0.232
			C221.892,234.958,221.266,244.021,216.418,244.021z"/>
		<path fill="#E52521" d="M255.211,209.913h-5.484v0l-16.045,21.183c-0.024-0.966-0.05-1.971-0.078-3.001
			c-0.144-5.48-0.306-11.694-0.306-16.608v-1.148h-4.403v1.148c0,4.881,0.157,11.455,0.309,17.813
			c0.15,6.358,0.308,12.931,0.308,17.804v1.148h4.403v-1.148c0-1.704-0.01-4.746-0.03-7.245c3.91,2.378,12.933,7.867,13.569,8.239
			l0.927,0.542l2.459-3.637l-15.257-9.267L255.211,209.913z"/>
	</g>
	<g>
		<path fill="#9A9999" d="M198.359,257.296h-9.584v-4.3h23.468v4.3h-9.584v34.511h-4.299V257.296z"/>
		<path fill="#9A9999" d="M210.2,272.613c0-12.878,5.813-19.616,11.556-19.616c3.11,0,5.884,1.9,7.812,5.349
			c1.921,3.438,2.936,8.372,2.936,14.268c0,5.897-1.015,10.831-2.935,14.269c-1.926,3.449-4.7,5.348-7.811,5.348
			C216.014,292.229,210.2,285.491,210.2,272.613z M214.5,272.612c0,4.778,0.945,8.987,2.662,11.852
			c1.319,2.203,2.995,3.465,4.597,3.465c1.483,0,2.924-1.117,4.057-3.145c1.09-1.952,2.39-5.647,2.39-12.172
			c0-6.523-1.3-10.219-2.39-12.17c-1.134-2.028-2.575-3.146-4.059-3.146c-1.602,0-3.277,1.263-4.596,3.465
			C215.444,263.625,214.499,267.833,214.5,272.612z"/>
	</g>
	<g>
		<path fill="#FCBF24" d="M161.487,331.791c-0.862,1.546-3.071,4.141-8.179,4.141c-3.778,0-6.829-2.338-8.592-6.584
			c-1.208-2.911-1.447-5.793-1.457-5.915l4.286-0.337c0.006,0.081,0.764,8.537,5.762,8.537c1.526,0,3.533-0.335,4.424-1.935
			c0.751-1.347,0.547-3.333-0.521-5.061c-1.102-1.783-3.134-3.186-5.285-4.672c-3.044-2.102-6.494-4.483-7.983-8.569
			c-1.222-3.351-0.794-6.885,1.174-9.698c2.19-3.13,6.022-4.998,10.25-4.998c7.652,0,9.673,8.286,9.674,12.667l-4.299,0.005
			c-0.001-0.342-0.1-8.373-5.375-8.373c-2.827,0-5.342,1.183-6.728,3.164c-1.169,1.671-1.402,3.717-0.657,5.761
			c1.021,2.798,3.627,4.599,6.387,6.503c2.421,1.672,4.925,3.401,6.5,5.95C162.771,325.455,163.008,329.063,161.487,331.791z"/>
		<path fill="#FCBF24" d="M166.898,328.841c-1.122-3.611-1.277-8.127-1.277-12.469c0-12.431,3.575-19.56,9.808-19.56
			c7.427,0,9.604,9.694,9.693,10.107l-4.202,0.911c-0.015-0.067-1.591-6.719-5.491-6.719c-1.643,0-2.979,1.399-3.974,4.158
			c-0.99,2.749-1.535,6.692-1.535,11.103c0,10.982,1.535,15.261,5.475,15.261c4.848,0,5.473-9.063,5.478-9.155l4.293,0.231
			c-0.007,0.127-0.182,3.155-1.309,6.22c-1.661,4.516-4.666,7.002-8.462,7.002C172.524,335.932,168.719,334.701,166.898,328.841z"/>
		<path fill="#FCBF24" d="M192.843,335.589l-4.298-0.089l0.806-38.727l4.298,0.089l-0.495,23.753h12.306l-0.658-23.737l4.297-0.12
			l1.075,38.726l-4.298,0.12l-0.296-10.689h-12.515L192.843,335.589z"/>
		<path fill="#FCBF24" d="M213.542,316.315c0-12.878,5.813-19.616,11.556-19.616c3.11,0,5.884,1.899,7.811,5.349
			c1.921,3.438,2.937,8.372,2.937,14.268c0,5.897-1.015,10.831-2.935,14.268c-1.927,3.449-4.7,5.348-7.811,5.348
			C219.356,335.932,213.542,329.193,213.542,316.315z M217.842,316.315c0,4.778,0.945,8.987,2.662,11.852
			c1.319,2.203,2.995,3.465,4.597,3.465c1.483,0,2.924-1.117,4.057-3.145c1.09-1.952,2.39-5.647,2.39-12.172
			c0-6.523-1.3-10.219-2.39-12.17c-1.134-2.028-2.575-3.146-4.059-3.146c-1.602,0-3.277,1.263-4.596,3.465
			C218.786,307.327,217.841,311.536,217.842,316.315z"/>
		<path fill="#FCBF24" d="M236.577,316.315c0-12.878,5.813-19.616,11.556-19.616c3.11,0,5.884,1.899,7.812,5.349
			c1.921,3.438,2.936,8.372,2.936,14.268c0,5.897-1.015,10.831-2.935,14.268c-1.927,3.449-4.7,5.348-7.811,5.348
			C242.391,335.932,236.577,329.193,236.577,316.315z M240.877,316.315c0,4.778,0.945,8.987,2.662,11.852
			c1.319,2.203,2.995,3.465,4.597,3.465c1.483,0,2.924-1.117,4.057-3.145c1.09-1.952,2.39-5.647,2.39-12.172
			c0-6.523-1.3-10.219-2.39-12.17c-1.134-2.028-2.575-3.146-4.059-3.146c-1.602,0-3.277,1.263-4.596,3.465
			C241.822,307.327,240.876,311.536,240.877,316.315z"/>
		<path fill="#FCBF24" d="M260.464,335.932l-0.852-39.066l4.298-0.095l0.76,34.862h13.348v4.299H260.464z"/>
	</g>
	<g>
		<path fill="#575756" d="M291.083,166.484l9.387-1.201l-0.635-4.96l-23.984,3.07l12.162,19.007l4.212-2.695l-6.237-9.748
			c14.964,4.999,23.52,13.939,28.138,20.871c6.216,9.331,8.907,20.308,7.384,30.114c-1.547,9.963-6.927,16.688-14.93,19.156
			c-0.962-7.235-4.606-14.73-10.814-21.88c-6.715-7.737-12.438-6.105-14.586-5.044c-5.022,2.479-7.73,9.619-6.299,16.611
			c1.955,9.551,10.355,15.648,22.469,16.309c1.518,0.083,2.99,0.068,4.42-0.041c-0.292,2.967-1.179,5.835-2.67,8.557
			c-6.812,12.436-24.423,18.868-43.825,16.007l-0.729,4.946c3.289,0.486,6.533,0.721,9.702,0.721
			c17.506,0,32.623-7.196,39.238-19.271c2.034-3.713,3.134-7.679,3.324-11.78c10.471-2.676,17.712-11.099,19.642-23.523
			C329.527,201.902,318.035,177.147,291.083,166.484z M297.622,241.103c-13.984-0.763-17.137-8.87-17.843-12.319
			c-0.958-4.678,0.663-9.669,3.613-11.125c0.585-0.289,1.183-0.415,1.779-0.415c2.67,0,5.32,2.526,6.819,4.253
			c5.698,6.564,8.966,13.213,9.718,19.544C300.396,241.159,299.032,241.181,297.622,241.103z"/>
		<path fill="#575756" d="M164.173,265.006l0.155,10.662c-4.333-3.421-9.235-6.922-14.378-10.591
			c-12.317-8.786-25.054-17.87-32.84-27.8c-8.501-10.842-9.253-20.464-2.367-30.282c1.839-2.622,3.755-4.413,5.632-5.606
			c0.35,0.687,0.718,1.349,1.104,1.982c3.898,6.41,9.156,9.599,14.795,8.978c6.038-0.663,7.139-4.146,7.333-5.613
			c0.543-4.124-3.44-8.945-9.266-11.214c-1.826-0.711-6.196-2.007-11.291-0.709c-2.76-8.339-2.8-19.136,2.083-26.473
			c4.433-6.66,12.325-9.338,22.82-7.751l0.748-4.944c-15.859-2.399-23.834,4.072-27.73,9.925
			c-5.887,8.844-5.884,21.403-2.559,31.144c-2.612,1.51-5.27,3.858-7.762,7.411c-18.264,26.037,12.044,47.653,36.397,65.023
			c4.851,3.459,9.485,6.769,13.581,9.969h-6.478v5h15.302l-0.28-19.184L164.173,265.006z M132.526,200.181
			c4.007,1.561,6.303,4.538,6.123,5.901c-0.079,0.602-1.226,1.111-2.921,1.297c-4.864,0.536-8.338-3.911-9.978-6.607
			c-0.25-0.412-0.493-0.84-0.727-1.281C128.241,198.847,130.988,199.581,132.526,200.181z"/>
	</g>
	<g>
		<path fill="#575756" d="M293.056,345.107l-0.43-4.981c-47.259,4.078-95.257,5.155-142.662,3.203l-0.206,4.996
			c15.362,0.632,30.786,0.947,46.228,0.947C228.405,349.272,260.901,347.881,293.056,345.107z"/>
		<path fill="#575756" d="M171.527,352.953l-0.398,4.984c20.803,1.661,41.762,2.492,62.717,2.492
			c18.708,0,37.414-0.663,55.997-1.988l-0.355-4.987C250.339,356.245,210.652,356.077,171.527,352.953z"/>
	</g>
	<g>
		<circle fill="#E52521" cx="289.536" cy="285.495" r="8.161"/>
		<circle fill="#FCBF24" cx="289.536" cy="304.743" r="8.161"/>
		<circle fill="#E52521" cx="289.536" cy="323.991" r="8.161"/>
	</g>
	<g>
		<circle fill="#FCBF24" cx="128.451" cy="285.495" r="8.161"/>
		<circle fill="#E52521" cx="128.451" cy="304.743" r="8.161"/>
		<circle fill="#FCBF24" cx="128.451" cy="323.991" r="8.161"/>
		<circle fill="#E52521" cx="128.451" cy="343.24" r="8.161"/>
	</g>
</g>
</svg>
