<svg width="9" height="14" viewBox="0 0 9 14" fill="none" xmlns="http://www.w3.org/2000/svg">
<path d="M7.89317 0.368328C8.00946 0.484325 8.10171 0.622106 8.16466 0.773787C8.22761 0.925467 8.26001 1.08807 8.26001 1.25228C8.26001 1.41649 8.22761 1.57909 8.16466 1.73077C8.10171 1.88245 8.00946 2.02023 7.89317 2.13623L3.02615 7.00109L7.89317 11.866C8.12771 12.1004 8.25948 12.4184 8.25948 12.7499C8.25948 13.0815 8.12771 13.3994 7.89317 13.6339C7.65863 13.8683 7.34052 14 7.00883 14C6.67714 14 6.35903 13.8683 6.12449 13.6339L0.366848 7.87877C0.250562 7.76278 0.158305 7.625 0.0953579 7.47332C0.0324106 7.32164 1.04904e-05 7.15904 1.04904e-05 6.99482C1.04904e-05 6.83061 0.0324106 6.66801 0.0953579 6.51633C0.158305 6.36465 0.250562 6.22687 0.366848 6.11087L6.12449 0.35579C6.60115 -0.120666 7.40396 -0.120666 7.89317 0.368328Z" fill="#064396"/>
</svg>
