<svg xmlns="http://www.w3.org/2000/svg" width="35.696" height="73" viewBox="0 0 35.696 73">
  <path id="path10194" d="M39.037.17l-.29,2.282.54.067,1.309.29h.031l.161.054L41.466.679,41.211.6l-.1-.022-1.4-.308-.1-.022ZM34.182.183l-.7.089-.094.022-1.4.313-.1.022-.139.045.683,2.184.125-.045h.018l1.255-.277.652-.085ZM27.309,2.595l-.8.5-.076.049-1.085.808,1.371,1.835,1-.759.027-.022.764-.473Zm18.6.063L44.7,4.578l.67.415.022.022,1.009.75.018.022.022.022.179-.246,1.308-1.487-.054-.045L47.8,3.97l-1.13-.835L46.6,3.081Zm-9.32,1.916A13.047,13.047,0,0,0,23.6,17.645c0,3.957,1.987,6.629,3.742,9.28a20.638,20.638,0,0,1,2.644,5.091l-.853-.415h-.009l-.688-.415-1.183,1.956.7.42.089.045,1.322.652.8-1.643a15.222,15.222,0,0,1,.536,3.993,1.143,1.143,0,0,0,0,.313v5.556a1.144,1.144,0,0,0,.022.223s0,0,0,0a1.143,1.143,0,0,0,.246.5s0,0,0,0a1.143,1.143,0,0,0,.875.407h3.671V53.971a12.353,12.353,0,0,0-11.138-7.1h0a12.247,12.247,0,0,0-4.274.782,1.143,1.143,0,0,0-.737,1.2A12.38,12.38,0,0,0,31.641,59.821h0a12.194,12.194,0,0,0,3.872-.665V73.17H37.8V64.506a12.225,12.225,0,0,0,3.836.661h0A12.255,12.255,0,0,0,53.806,54.306a1.143,1.143,0,0,0-.737-1.2,12.247,12.247,0,0,0-4.234-.773h-.009A12.22,12.22,0,0,0,37.8,59.348V43.619h3.519a1.152,1.152,0,0,0,1.143-1.143v-5.56a1.143,1.143,0,0,0,0-.321,15.2,15.2,0,0,1,.558-4.073l.844,1.706,1.322-.652.089-.049.589-.362-1.188-1.952-.549.335-.951.469a20.638,20.638,0,0,1,2.644-5.091c1.755-2.651,3.742-5.323,3.742-9.28A13.047,13.047,0,0,0,36.585,4.573Zm0,2.287a10.726,10.726,0,0,1,10.7,10.785c0,3.2-1.565,5.3-3.363,8.021a19.855,19.855,0,0,0-3.528,9.923H37.728V28.3a1.143,1.143,0,1,0-2.287,0v7.288H32.775a19.855,19.855,0,0,0-3.528-9.923c-1.8-2.716-3.363-4.821-3.363-8.021A10.726,10.726,0,0,1,36.585,6.86Zm-14.612.7-.616.924-.054.076L20.731,9.6l2,1.108.545-.983.6-.875Zm29.252.049L49.335,8.9l.518.768.621,1.1,1.992-1.121-.634-1.134-.054-.08ZM19.078,14.166l-.009.027-.022.1-.237,1.456-.013.1-.058.777,2.282.17.058-.75.205-1.286,0-.027h0l.009-.058-.741-.13Zm35.044.143-2.255.38L52.086,16l.067.857,2.282-.183-.071-.9-.013-.1ZM21.3,21.035l-2.246.429.067.366.022.094.371,1.358.031.094.174.473,2.148-.786L21.7,22.6l0-.027-.33-1.21Zm30.56.071-.04.214-.339,1.268-.009.031-.183.5,2.148.782.214-.589.027-.094.371-1.358.018-.094.045-.25ZM23.821,26.854l-1.885,1.3.3.438.058.076.893,1.09.067.076.237.246,1.644-1.594-.219-.228-.022-.022L24.1,27.26Zm25.5.054-.214.313-.018.027-.8.978-.29.3,1.648,1.585.322-.335.062-.071.889-1.094.058-.076.232-.344ZM32.99,37.876h3.385a1.143,1.143,0,0,0,.4,0H40.18v3.457H32.99Zm-8.61,11.285h0a9.967,9.967,0,0,1,9.691,7.932,10,10,0,0,1-2.434.442,9.964,9.964,0,0,1-9.7-7.931A10.017,10.017,0,0,1,24.379,49.161Zm24.446,5.457h0a9.762,9.762,0,0,1,2.394.438,9.852,9.852,0,0,1-9.575,7.824,9.782,9.782,0,0,1-2.4-.433A9.856,9.856,0,0,1,48.826,54.618Z" transform="translate(-18.739 -0.17)"/>
</svg>
