<svg width="11" height="18" viewBox="0 0 11 18" fill="none" xmlns="http://www.w3.org/2000/svg">
<path d="M0.47144 0.473565C0.321996 0.622703 0.203432 0.799851 0.122536 0.994868C0.04164 1.18989 0 1.39894 0 1.61007C0 1.8212 0.04164 2.03026 0.122536 2.22528C0.203432 2.42029 0.321996 2.59744 0.47144 2.74658L6.72626 9.0014L0.47144 15.2562C0.170019 15.5576 0.0006826 15.9665 0.0006826 16.3927C0.0006826 16.819 0.170019 17.2278 0.47144 17.5292C0.772861 17.8307 1.18167 18 1.60795 18C2.03422 18 2.44304 17.8307 2.74446 17.5292L10.1438 10.1299C10.2933 9.98071 10.4119 9.80357 10.4928 9.60855C10.5736 9.41353 10.6153 9.20447 10.6153 8.99334C10.6153 8.78221 10.5736 8.57316 10.4928 8.37814C10.4119 8.18312 10.2933 8.00597 10.1438 7.85684L2.74446 0.457444C2.13187 -0.155142 1.10015 -0.155142 0.47144 0.473565Z" fill="black"/>
</svg>
