<?xml version="1.0" standalone="no"?>
<!DOCTYPE svg PUBLIC "-//W3C//DTD SVG 20010904//EN"
 "http://www.w3.org/TR/2001/REC-SVG-20010904/DTD/svg10.dtd">
<svg version="1.0" xmlns="http://www.w3.org/2000/svg"
 width="200.000000" height="200.000000" viewBox="0 0 200.000000 200.000000"
 preserveAspectRatio="xMidYMid meet">
<g transform="translate(0.000000,200.000000) scale(0.066666,-0.066666)"
fill="#0000ff" stroke="none">
<g transform="translate(1000, 1000) scale(0.3, 0.3)">
<g>
<path d="M1355 2929 c-612 -63 -1123 -514 -1255 -1110 -109 -487 34 -983 385
-1334 208 -209 479 -350 770 -401 134 -23 356 -23 490 0 443 78 834 366 1034
764 283 560 177 1226 -264 1667 -239 239 -530 376 -877 414 -108 12 -166 12
-283 0z m-26 -88 l46 -38 155 -6 c169 -6 258 -20 278 -45 18 -23 15 -34 -7
-27 -22 7 -22 7 -47 -118 -10 -48 -23 -86 -28 -84 -27 9 -30 38 -13 123 10 47
16 89 13 91 -2 3 -20 6 -38 6 l-33 2 -12 -100 c-6 -55 -12 -104 -12 -109 -2
-20 -41 29 -41 51 0 20 -5 23 -34 23 -72 0 -130 91 -76 120 25 13 68 3 79 -19
8 -14 5 -16 -24 -13 -27 3 -34 0 -40 -18 -8 -27 11 -42 40 -33 35 10 65 35 65
52 0 9 3 26 6 39 6 22 6 22 -105 22 l-111 0 1 -37 c0 -21 4 -69 8 -108 5 -38
7 -71 5 -73 -1 -2 -12 1 -23 8 -13 7 -23 25 -27 49 -6 38 -7 39 -33 25 -15 -8
-38 -12 -53 -8 -37 8 -35 -5 7 -46 49 -48 35 -50 -25 -4 -79 60 -103 113 -44
98 27 -7 32 12 14 46 -8 14 -18 18 -43 13 -23 -3 -37 0 -46 11 -11 13 -9 16
11 21 124 28 157 35 181 35 15 0 27 3 27 8 0 12 -65 52 -86 52 -21 0 -44 17
-44 33 0 20 64 -5 109 -42z m735 -170 c55 -27 125 -65 155 -85 29 -20 54 -36
56 -36 8 0 -18 87 -31 101 -15 17 -19 49 -6 49 23 0 43 -42 50 -103 7 -57 12
-69 38 -88 67 -51 204 -201 259 -285 32 -49 78 -130 102 -181 37 -78 42 -96
33 -114 -11 -20 -12 -20 -25 -3 -12 17 -18 16 -109 -20 -54 -21 -100 -36 -103
-32 -16 16 32 54 106 84 l81 33 -16 32 c-9 18 -18 33 -19 35 -2 2 -46 -20 -99
-48 -75 -40 -96 -48 -96 -35 0 28 18 52 49 64 29 13 29 13 13 41 -13 23 -22
28 -39 23 -21 -5 -23 -1 -23 29 0 22 7 42 20 53 19 17 20 16 57 -43 21 -34 43
-61 48 -61 6 0 19 6 29 14 19 14 18 18 -38 100 -32 47 -60 85 -63 85 -3 0 -40
-29 -83 -65 -43 -36 -81 -65 -84 -65 -3 0 -6 11 -6 24 0 16 14 36 42 60 40 35
41 36 23 56 -17 19 -18 19 -41 1 -28 -22 -58 -17 -79 12 -17 24 -20 97 -5 97
6 0 10 -13 10 -29 0 -58 57 -66 70 -10 6 23 7 23 51 -18 33 -30 49 -39 59 -33
12 7 0 24 -55 80 -38 40 -82 80 -96 91 l-27 19 -61 -85 c-34 -47 -66 -85 -72
-85 -25 0 -5 59 42 124 l52 70 -29 22 c-15 13 -31 21 -35 19 -3 -3 -30 -46
-59 -96 -44 -75 -55 -88 -62 -74 -6 9 -7 30 -4 46 5 25 2 31 -27 42 -43 19
-58 38 -64 88 -5 37 -4 41 10 36 23 -9 47 2 47 20 0 8 -13 28 -30 43 -27 26
-39 50 -24 50 4 0 52 -22 108 -49z m-1069 13 c14 -6 14 -8 -1 -25 -16 -18 -15
-24 24 -107 23 -48 42 -91 42 -95 0 -16 -32 -5 -54 18 -23 25 -23 25 -41 5
-21 -23 -79 -27 -120 -8 -24 11 -34 28 -16 28 17 0 22 34 6 49 -14 14 -19 14
-50 -3 -64 -35 -64 -39 4 -127 66 -87 73 -104 39 -94 -24 7 -60 42 -113 110
l-31 38 -37 -33 -37 -32 32 -29 33 -28 -30 -33 c-17 -18 -34 -36 -38 -39 -5
-3 -7 -17 -5 -30 5 -37 59 -39 87 -3 11 15 21 35 21 45 0 12 7 19 18 19 27 0
31 -8 22 -41 -9 -29 -9 -29 36 -29 54 0 59 -18 7 -22 -31 -2 -39 -7 -41 -25
-2 -13 -10 -23 -19 -23 -11 0 -14 7 -10 25 4 23 3 24 -12 12 -25 -23 -57 -29
-95 -18 -31 8 -36 7 -41 -10 -9 -26 -53 -59 -82 -59 -13 0 -38 7 -55 16 -30
15 -32 15 -45 -2 -7 -10 -13 -24 -13 -31 0 -7 44 -35 97 -62 l98 -49 -29 -13
c-26 -12 -34 -10 -108 30 -88 47 -99 45 -113 -11 -7 -26 -5 -28 26 -28 37 0
69 -24 69 -52 0 -14 5 -18 18 -14 59 17 105 27 108 23 14 -14 -165 -69 -194
-59 -17 5 -15 23 4 37 15 10 15 13 -1 28 -26 27 -50 21 -63 -17 -12 -31 -38
-53 -50 -42 -8 8 38 125 85 216 75 145 113 197 223 310 110 111 113 120 50
120 -41 0 -57 -23 -36 -55 20 -30 3 -34 -32 -7 -32 24 -26 62 11 80 23 11 36
11 83 -3 54 -16 57 -15 78 3 39 36 239 152 263 152 6 0 19 -3 28 -6z m726
-283 c350 -90 601 -349 685 -706 23 -99 23 -288 0 -389 -68 -296 -282 -549
-561 -661 -160 -64 -360 -81 -530 -46 -305 63 -552 270 -672 561 -80 193 -85
447 -15 650 111 318 399 557 737 610 88 13 268 4 356 -19z m-1319 -791 c33 0
34 -4 7 -31 -19 -19 -19 -22 -5 -44 9 -14 16 -27 16 -30 0 -11 -24 -4 -42 12
-17 15 -20 15 -41 -5 -29 -27 -37 -20 -30 22 4 27 1 34 -19 43 l-23 12 25 0
c35 2 47 12 56 46 l8 30 10 -27 c8 -22 16 -28 38 -28z m2308 -5 c27 8 33 -9
10 -30 -18 -16 -18 -20 -5 -46 8 -15 15 -30 15 -34 0 -11 -24 -4 -42 12 -17
15 -19 15 -36 0 -28 -26 -38 -20 -34 18 3 25 0 36 -12 41 -22 8 -10 24 19 24
18 0 25 7 30 32 l7 32 15 -28 c10 -19 19 -25 33 -21z m-2240 -300 c0 -8 -27
-43 -61 -79 l-60 -65 68 20 c81 23 83 23 83 5 0 -8 -34 -23 -95 -40 -112 -31
-105 -30 -105 -8 0 9 26 43 56 75 31 32 55 60 52 62 -2 3 -34 -4 -71 -14 -37
-10 -67 -14 -67 -10 0 5 -1 12 -2 16 -3 7 151 50 185 52 9 1 17 -6 17 -14z
m2122 -1 c3 -3 2 -21 -4 -41 -7 -27 -7 -38 4 -44 28 -18 46 -9 52 27 4 21 12
34 19 31 13 -5 13 -7 3 -49 -6 -24 -3 -28 26 -36 32 -8 33 -7 44 27 13 43 40
58 30 16 -4 -15 -10 -40 -13 -56 -3 -16 -12 -29 -19 -29 -22 0 -168 41 -178
50 -5 5 -3 31 4 59 11 48 19 59 32 45z m132 -194 c21 -21 -7 -24 -57 -6 -29
10 -59 21 -67 24 -8 3 9 -20 38 -49 72 -75 70 -82 -25 -75 l-78 6 63 -32 c56
-29 82 -59 50 -58 -24 1 -173 89 -173 102 0 10 21 13 83 13 45 0 82 1 82 2 0
1 -25 26 -57 56 -38 37 -54 59 -50 70 5 14 16 13 94 -14 48 -16 92 -34 97 -39z
m-2189 -20 c0 -16 -139 -150 -156 -150 -16 0 -10 23 12 46 17 18 19 28 12 51
-8 22 -17 29 -47 33 -57 8 -43 24 26 31 103 10 153 6 153 -11z m63 -115 c23
-41 42 -76 42 -79 0 -3 -37 -30 -82 -61 -58 -40 -83 -53 -89 -44 -8 13 3 23
84 78 50 34 55 45 32 74 -13 18 -17 17 -82 -22 -71 -42 -88 -48 -97 -32 -3 5
28 28 70 52 76 43 78 47 59 92 -5 11 -3 17 6 17 8 0 33 -34 57 -75z m1862 -22
c-20 -34 -20 -36 -3 -49 25 -19 29 -18 53 16 29 41 46 28 20 -15 l-20 -33 25
-16 c33 -22 37 -21 57 14 17 29 38 40 38 20 0 -14 -51 -90 -60 -90 -6 0 -155
93 -168 105 -2 2 10 24 28 50 36 53 62 52 30 -2z m14 -129 c52 -45 74 -70 67
-77 -6 -6 -20 -1 -41 17 -17 14 -35 26 -39 26 -4 0 -20 -14 -37 -31 l-29 -31
40 -33 c33 -28 37 -35 23 -40 -12 -5 -37 10 -83 49 l-65 55 -26 -22 c-39 -33
-47 -63 -29 -101 28 -58 83 -68 132 -23 13 11 26 18 29 15 10 -11 -27 -56 -56
-68 -74 -31 -158 46 -142 128 5 25 78 102 97 102 7 0 20 -9 30 -20 25 -27 37
-25 63 10 27 37 27 38 -3 62 -24 19 -34 48 -17 48 5 0 43 -30 86 -66z m-1783
16 c29 -16 51 -67 44 -100 -9 -43 -68 -90 -111 -90 -44 0 -94 45 -94 85 0 80
93 141 161 105z m102 -107 c3 -5 -1 -45 -7 -90 -7 -46 -10 -83 -6 -83 3 0 23
23 44 50 34 45 66 65 66 42 0 -5 -30 -44 -66 -86 -81 -95 -91 -91 -75 24 7 45
10 84 8 86 -2 3 -24 -20 -49 -50 -32 -39 -48 -52 -56 -44 -7 7 7 32 51 84 57
69 79 85 90 67z m1387 -83 c0 -6 -11 -16 -25 -22 -16 -7 -25 -19 -25 -35 0
-22 3 -23 55 -22 62 2 85 -11 85 -50 -1 -38 -42 -81 -79 -81 -23 0 -9 26 19
37 23 9 30 18 30 37 0 25 -3 26 -54 26 -61 0 -86 16 -86 55 0 14 11 32 26 44
29 22 54 27 54 11z m-1214 -48 c16 -10 -26 -204 -45 -210 -10 -3 -12 4 -9 32
4 32 0 40 -25 58 l-28 20 -23 -21 c-23 -22 -46 -28 -46 -11 0 10 148 140 159
140 3 0 11 -4 17 -8z m1064 -42 c0 -5 -13 -16 -30 -25 -31 -16 -36 -30 -21
-54 7 -11 15 -11 42 -2 43 15 60 -2 19 -19 -17 -7 -33 -16 -36 -21 -4 -7 9
-43 21 -57 2 -2 20 4 41 13 23 9 41 12 47 6 10 -10 -3 -18 -66 -45 l-38 -15
-39 86 c-22 47 -40 90 -40 94 0 10 69 48 88 49 6 0 12 -4 12 -10z m-1000 -95
c-18 -41 -31 -77 -29 -79 2 -2 19 -11 37 -20 17 -9 32 -21 32 -26 0 -14 -12
-12 -64 11 -54 23 -54 18 1 138 25 56 36 72 45 63 8 -8 3 -30 -22 -87z m890
40 c0 -9 -9 -15 -25 -15 -60 0 -86 -81 -44 -135 23 -28 44 -30 108 -10 43 14
18 -19 -26 -34 -75 -27 -133 20 -133 108 0 29 6 46 23 62 39 37 97 52 97 24z
m-646 -25 c41 -15 32 -31 -14 -24 -58 9 -64 -16 -16 -65 20 -20 36 -45 36 -54
0 -26 -37 -57 -68 -57 -36 0 -78 28 -63 43 8 8 14 8 23 -1 17 -17 65 -15 72 3
3 9 -8 31 -29 54 -40 44 -44 73 -13 95 26 19 37 20 72 6z m134 -26 c39 -8 25
-26 -18 -22 -36 3 -41 1 -47 -20 -7 -28 -3 -33 37 -41 41 -8 34 -26 -10 -26
-32 0 -35 -3 -38 -32 -3 -29 0 -33 22 -33 31 0 56 -9 56 -21 0 -10 -53 -10
-90 0 -28 8 -27 4 -10 128 l12 82 32 -5 c17 -3 41 -7 54 -10z m356 -1 c7 -24
36 -162 36 -174 0 -5 -6 -9 -14 -9 -9 0 -20 28 -32 90 -10 49 -20 87 -23 85
-2 -3 -14 -46 -26 -97 -14 -62 -26 -94 -36 -96 -10 -2 -28 25 -54 78 -37 76
-40 79 -47 54 -4 -15 -13 -31 -19 -35 -9 -5 -10 -11 -2 -21 6 -7 14 -30 18
-52 10 -53 -14 -45 -33 12 -11 34 -18 42 -38 42 -22 0 -24 -4 -24 -46 0 -32
-4 -44 -12 -42 -9 3 -14 36 -16 106 l-3 102 47 0 c31 0 54 -6 67 -17 19 -17
20 -17 14 0 -4 12 -1 17 11 17 12 0 26 -22 47 -71 16 -39 32 -72 36 -75 4 -2
12 27 19 64 16 85 25 102 55 102 14 0 26 -7 29 -17z" >
</path>
<path d="M1262 2743 c-17 -3 -22 -9 -17 -21 4 -9 12 -30 18 -47 5 -16 11 -31
12 -33 2 -2 18 5 36 15 31 16 34 22 31 56 -3 39 -13 43 -80 30z" />
<path d="M2037 2620 c6 -23 -21 -60 -44 -60 -7 0 -13 -4 -13 -8 0 -19 27 -32
65 -32 34 0 43 5 58 29 24 41 22 48 -23 71 -48 25 -49 25 -43 0z"/>
<path d="M882 2604 c-43 -26 -44 -26 -20 -38 26 -13 35 -50 18 -72 -20 -23 26
-18 50 6 29 29 34 63 16 99 -9 17 -18 31 -19 31 -1 0 -22 -12 -45 -26z"/>
<path d="M539 2333 c-43 -48 -89 -108 -89 -116 0 -10 45 -8 74 3 18 6 26 17
26 32 0 13 13 40 29 59 23 27 27 39 18 48 -17 17 -22 14 -58 -26z"/>
<path d="M495 2193 c-46 -10 -49 -13 -29 -28 27 -20 61 -18 73 4 16 28 4 35
-44 24z"/>
<path d="M420 1068 c0 -7 5 -20 10 -28 8 -13 14 -11 37 13 l28 27 -38 0 c-23
0 -37 -5 -37 -12z"/>
<path d="M589 791 c-48 -48 -34 -111 25 -111 66 0 113 67 81 116 -22 34 -68
32 -106 -5z"/>
<path d="M907 542 l-27 -29 24 -11 c23 -10 24 -8 31 25 3 19 5 37 2 39 -2 2
-16 -9 -30 -24z"/>
<path d="M1477 423 c-10 -10 -8 -61 2 -67 18 -11 61 13 61 33 0 28 -46 52 -63
34z"/>
    <animateTransform attributeName="transform" type="scale" begin="0s" from="0 0" to="1 1" dur="2s" repeatCount="1" />
    <animateTransform attributeName="transform" type="rotate" from="360 1500 1500" to="0 1500 1500" begin="2s" dur="3s" repeatCount="1" />
</g>
<g fill="orange">
<path d="M1325 2294 c-112 -27 -221 -77 -303 -139 l-42 -33 156 -161 c86 -89
163 -161 171 -161 37 0 72 -30 79 -68 6 -34 66 -112 86 -112 14 0 9 115 -7
136 -8 10 -14 33 -14 49 0 17 6 39 14 49 12 16 15 62 15 238 l0 218 -47 -1
c-27 0 -75 -7 -108 -15z">
    <animateTransform attributeName="transform" type="scale" begin="3s" from="0 0" to="1 1" dur="1s" repeatCount="1" />
</path>
<path d="M1580 2090 c0 -181 3 -225 16 -253 15 -31 15 -36 0 -65 -10 -20 -16
-56 -16 -102 l0 -71 40 37 c23 22 40 46 40 59 0 34 37 75 68 75 21 0 62 33
187 155 l160 155 -40 36 c-91 81 -226 149 -352 178 -40 9 -79 16 -87 16 -14 0
-16 -28 -16 -220z">
    <animateTransform attributeName="transform" type="rotate" from="180 1500 1500" to="0 1500 1500" begin="3s" dur="1s" repeatCount="1" />
</path>
<path d="M854 1988 c-76 -104 -121 -206 -149 -336 -8 -40 -15 -80 -15 -88 0
-12 37 -14 234 -14 202 0 238 2 264 17 28 16 32 16 69 -1 24 -11 56 -16 85
-14 l47 3 -38 40 c-20 22 -50 47 -66 55 -17 9 -37 30 -46 47 -16 32 -317 353
-331 353 -4 0 -29 -28 -54 -62z">
    <animateTransform attributeName="transform" type="rotate" from="180 1500 1500" to="0 1500 1500" dur="1s" repeatCount="1" begin="3s" />
</path>
<path d="M1979 1847 c-86 -84 -161 -165 -167 -180 -7 -16 -26 -34 -45 -42 -17
-7 -45 -27 -61 -44 l-30 -31 37 0 c20 0 53 8 72 17 35 17 38 17 67 0 25 -15
59 -17 244 -17 l214 0 0 43 c0 53 -30 165 -63 238 -29 66 -93 169 -104 169 -5
-1 -78 -69 -164 -153z">
    <animateTransform attributeName="transform" type="scale" begin="3s" from="0 0" to="1 1" dur="1s" repeatCount="1" />
</path>
<path d="M690 1436 c0 -8 7 -49 16 -91 27 -131 91 -268 169 -360 l32 -39 167
164 c91 90 166 170 166 179 1 26 26 52 62 61 18 6 53 30 78 55 l44 45 -69 0
c-46 -1 -77 -6 -89 -15 -25 -19 -65 -19 -90 0 -28 22 -486 22 -486 1z">
    <animateTransform attributeName="transform" type="scale" begin="3s" from="0 0" to="1 1" dur="1s" repeatCount="1" />
</path>
<path d="M1651 1433 c32 -41 82 -83 98 -83 22 0 45 -25 57 -61 10 -28 293
-331 306 -327 16 6 92 118 123 183 41 85 75 204 75 262 l0 43 -213 0 c-172 0
-217 -3 -233 -15 -25 -19 -65 -19 -90 0 -11 9 -42 14 -78 15 -54 0 -57 -1 -45
-17z">
    <animateTransform attributeName="transform" type="rotate" from="180 1500 1500" to="0 1500 1500" begin="3s" dur="1s" repeatCount="1" />
</path>
<path d="M1580 1318 c0 -25 7 -62 15 -82 14 -32 14 -39 0 -66 -12 -23 -15 -72
-15 -255 0 -199 2 -225 16 -225 9 0 52 9 97 21 98 24 234 88 299 139 l47 37
-151 156 c-93 97 -157 157 -169 157 -26 0 -69 44 -69 70 0 12 -16 37 -35 57
l-35 36 0 -45z">
    <animateTransform attributeName="transform" type="scale" begin="3s" from="0 0" to="1 1" dur="1s" repeatCount="1" />
</path>
<path d="M1434 1318 c-17 -18 -37 -48 -44 -66 -13 -34 -36 -52 -67 -52 -10 0
-26 -8 -34 -17 -9 -10 -82 -83 -163 -162 -80 -79 -146 -144 -146 -146 0 -5
109 -76 150 -97 92 -48 233 -88 311 -88 l39 0 0 223 c-1 179 -3 226 -15 241
-19 26 -19 80 0 96 16 13 22 100 7 100 -4 0 -22 -15 -38 -32z">
    <animateTransform attributeName="transform" type="rotate" begin="3s" from="180 1500 1500" to="0 1500 1500" dur="1s" repeatCount="1" />
</path>
</g>
</g>
<circle cx="-1000" cy="200" r="60" style="fill:#00cc00">
    <animate attributeName="cx" attributeType="XML"
             from="-1000"  to="1300"
             begin="0s" dur="3s"
             fill="remove" repeatCount="1"/>
    <animate attributeName="cy" attributeType="XML"
             from="200"  to="1300"
             begin="0s" dur="3s"
             fill="remove" repeatCount="1"/>
</circle>
<circle cx="-1000" cy="2800" r="60" style="fill:#ffbf00">
    <animate attributeName="cx" attributeType="XML"
             from="-1000"  to="1300"
             begin="0s" dur="3s"
             fill="remove" repeatCount="1"/>
    <animate attributeName="cy" attributeType="XML"
             from="2800"  to="1600"
             begin="0s" dur="3s"
             fill="remove" repeatCount="1"/>
</circle>
<circle cx="4000" cy="2800" r="60" style="fill:red">
    <animate attributeName="cx" attributeType="XML"
             from="4000"  to="1600"
             begin="0s" dur="3s"
             fill="remove" repeatCount="1"/>
    <animate attributeName="cy" attributeType="XML"
             from="2800"  to="1600"
             begin="0s" dur="3s"
             fill="remove" repeatCount="1"/>
</circle>
<circle cx="4000" cy="200" r="60" style="fill:magenta">
    <animate attributeName="cx" attributeType="XML"
             from="4000"  to="1600"
             begin="0s" dur="3s"
             fill="remove" repeatCount="1"/>
    <animate attributeName="cy" attributeType="XML"
             from="200"  to="1300"
             begin="0s" dur="3s"
             fill="remove" repeatCount="1"/>
</circle>
</g>
</svg>
