<svg width="32" height="32" viewBox="0 0 32 32" fill="none" xmlns="http://www.w3.org/2000/svg">
<path d="M27.2645 27.2652H22.5231V19.8398C22.5231 18.0692 22.4915 15.7898 20.0571 15.7898C17.5877 15.7898 17.2098 17.7191 17.2098 19.711V27.2647H12.4685V11.9952H17.0201V14.082H17.0839C17.5394 13.3031 18.1976 12.6624 18.9885 12.228C19.7794 11.7936 20.6732 11.5819 21.5749 11.6153C26.3805 11.6153 27.2665 14.7763 27.2665 18.8886L27.2645 27.2652ZM7.11852 9.9081C5.5989 9.90835 4.36677 8.6766 4.36652 7.15697C4.36627 5.63735 5.5979 4.40522 7.11752 4.40497C8.63715 4.4046 9.86927 5.63635 9.86952 7.15597C9.86966 7.88573 9.5799 8.58565 9.06399 9.10177C8.54808 9.61789 7.84828 9.90793 7.11852 9.9081ZM9.48927 27.2653H4.7429V11.9952H9.48915V27.2652L9.48927 27.2653ZM29.6283 0.00159656H2.3604C1.07165 -0.0129034 0.0147734 1.01947 -0.000976562 2.30822V29.6898C0.0142734 30.9792 1.07102 32.0126 2.36027 31.9991H29.6283C30.9203 32.0151 31.9811 30.9817 31.999 29.6898V2.3061C31.9806 1.01485 30.9196 -0.0174034 29.6283 -0.000528435" fill="#0A66C2"/>
</svg>
